{
	"asset":{
		"generator":"Khronos glTF Blender I/O v4.2.60",
		"version":"2.0"
	},
	"extensionsUsed":[
		"KHR_lights_punctual"
	],
	"extensionsRequired":[
		"KHR_lights_punctual"
	],
	"extensions":{
		"KHR_lights_punctual":{
			"lights":[
				{
					"color":[
						1,
						1,
						1
					],
					"intensity":510.9032102523278,
					"type":"point",
					"name":"Point"
				},
				{
					"color":[
						1,
						1,
						1
					],
					"intensity":543.5141306588226,
					"spot":{
						"innerConeAngle":0.44080799473801235,
						"outerConeAngle":0.5105087757110596
					},
					"type":"spot",
					"name":"Spot.002"
				}
			]
		}
	},
	"scene":0,
	"scenes":[
		{
			"name":"Scene",
			"nodes":[
				12
			]
		}
	],
	"nodes":[
		{
			"mesh":0,
			"name":"Abajur",
			"translation":[
				0,
				-0.4420807361602783,
				0.1739506721496582
			]
		},
		{
			"mesh":1,
			"name":"C_LightBulb",
			"translation":[
				0,
				-0.5121386051177979,
				0.1739506721496582
			]
		},
		{
			"extensions":{
				"KHR_lights_punctual":{
					"light":0
				}
			},
			"name":"Point",
			"rotation":[
				-0.7071068286895752,
				0,
				0,
				0.7071068286895752
			],
			"translation":[
				0,
				-1.3749943971633911,
				0.1739506721496582
			]
		},
		{
			"mesh":2,
			"name":"S_LightBulb",
			"rotation":[
				-1,
				0,
				0,
				4.0133929246621847e-07
			],
			"translation":[
				0,
				-0.5575374960899353,
				0.1739506721496582
			]
		},
		{
			"extensions":{
				"KHR_lights_punctual":{
					"light":1
				}
			},
			"name":"Spot",
			"rotation":[
				-0.7010574340820312,
				-0.09229596704244614,
				-0.09229594469070435,
				0.7010573744773865
			],
			"translation":[
				0,
				-0.11499439924955368,
				0.1739511489868164
			]
		},
		{
			"children":[
				0,
				1,
				2,
				3,
				4
			],
			"mesh":3,
			"name":"AbajurJoint",
			"translation":[
				0,
				0,
				0.2454996109008789
			]
		},
		{
			"children":[
				5
			],
			"mesh":4,
			"name":"ArmToAbajurJoint",
			"translation":[
				0,
				-0.0017052441835403442,
				1.5204558372497559
			]
		},
		{
			"children":[
				6
			],
			"mesh":5,
			"name":"ShortArm",
			"translation":[
				-0.07031480967998505,
				0,
				4.194299697875977
			]
		},
		{
			"children":[
				7
			],
			"mesh":6,
			"name":"LongArm",
			"translation":[
				0.07031480967998505,
				0,
				0
			]
		},
		{
			"children":[
				8
			],
			"mesh":7,
			"name":"CircleJoint",
			"translation":[
				0,
				0.09073669463396072,
				0.34315940737724304
			]
		},
		{
			"children":[
				9
			],
			"mesh":8,
			"name":"SupportJoint"
		},
		{
			"children":[
				10
			],
			"mesh":9,
			"name":"SupportJointHolder",
			"translation":[
				0,
				0,
				0.11778393387794495
			]
		},
		{
			"children":[
				11
			],
			"mesh":10,
			"name":"Support"
		}
	],
	"materials":[
		{
			"doubleSided":true,
			"name":"AbajurOutside",
			"pbrMetallicRoughness":{
				"baseColorFactor":[
					0.005154889076948166,
					0.005154889076948166,
					0.005154889076948166,
					1
				],
				"metallicFactor":0.5118110179901123,
				"roughnessFactor":0.5196850299835205
			}
		},
		{
			"doubleSided":true,
			"emissiveFactor":[
				0.4999999701976776,
				0.4999999701976776,
				0.4999999701976776
			],
			"name":"AbajurInside",
			"pbrMetallicRoughness":{
				"metallicFactor":0.5
			}
		},
		{
			"doubleSided":true,
			"emissiveFactor":[
				1,
				1,
				1
			],
			"name":"LightBulb",
			"pbrMetallicRoughness":{
				"baseColorFactor":[
					0,
					0,
					0,
					1
				]
			}
		},
		{
			"doubleSided":true,
			"emissiveFactor":[
				0.5,
				0.5,
				0.5
			],
			"name":"LightBulbBase",
			"pbrMetallicRoughness":{
				"metallicFactor":0.7559055089950562
			}
		},
		{
			"doubleSided":true,
			"name":"SupportJointMaterial",
			"pbrMetallicRoughness":{
				"baseColorFactor":[
					0,
					0,
					0,
					1
				],
				"metallicFactor":0.25196850299835205,
				"roughnessFactor":0.7283464670181274
			}
		},
		{
			"doubleSided":true,
			"name":"SupportMaterial",
			"pbrMetallicRoughness":{
				"baseColorFactor":[
					0,
					0,
					0,
					1
				],
				"metallicFactor":0.25196850299835205,
				"roughnessFactor":0.7283464670181274
			}
		}
	],
	"meshes":[
		{
			"name":"AbajurMesh",
			"primitives":[
				{
					"attributes":{
						"POSITION":0,
						"NORMAL":1,
						"TEXCOORD_0":2
					},
					"indices":3,
					"material":0
				},
				{
					"attributes":{
						"POSITION":4,
						"NORMAL":5,
						"TEXCOORD_0":6
					},
					"indices":7,
					"material":1
				}
			]
		},
		{
			"name":"C_LightBulbMesh",
			"primitives":[
				{
					"attributes":{
						"POSITION":8,
						"NORMAL":9,
						"TEXCOORD_0":10
					},
					"indices":11,
					"material":2
				},
				{
					"attributes":{
						"POSITION":12,
						"NORMAL":13,
						"TEXCOORD_0":14
					},
					"indices":15,
					"material":3
				}
			]
		},
		{
			"name":"S_LightBulbMesh.001",
			"primitives":[
				{
					"attributes":{
						"POSITION":16,
						"NORMAL":17,
						"TEXCOORD_0":18
					},
					"indices":19,
					"material":2
				},
				{
					"attributes":{
						"POSITION":20,
						"NORMAL":21,
						"TEXCOORD_0":22
					},
					"indices":23,
					"material":3
				}
			]
		},
		{
			"name":"AbajurJointMesh",
			"primitives":[
				{
					"attributes":{
						"POSITION":24,
						"NORMAL":25,
						"TEXCOORD_0":26
					},
					"indices":27,
					"material":4
				}
			]
		},
		{
			"name":"ArmToAbajutJointMesh",
			"primitives":[
				{
					"attributes":{
						"POSITION":28,
						"NORMAL":29,
						"TEXCOORD_0":30
					},
					"indices":31,
					"material":4
				}
			]
		},
		{
			"name":"ShortArmMesh",
			"primitives":[
				{
					"attributes":{
						"POSITION":32,
						"NORMAL":33,
						"TEXCOORD_0":34
					},
					"indices":35,
					"material":4
				}
			]
		},
		{
			"name":"LongArmMesh",
			"primitives":[
				{
					"attributes":{
						"POSITION":36,
						"NORMAL":37,
						"TEXCOORD_0":38
					},
					"indices":39,
					"material":4
				}
			]
		},
		{
			"name":"CircleJointMesh",
			"primitives":[
				{
					"attributes":{
						"POSITION":40,
						"NORMAL":41,
						"TEXCOORD_0":42
					},
					"indices":43,
					"material":5
				}
			]
		},
		{
			"name":"SupportJointMesh",
			"primitives":[
				{
					"attributes":{
						"POSITION":44,
						"NORMAL":45,
						"TEXCOORD_0":46
					},
					"indices":47,
					"material":4
				}
			]
		},
		{
			"name":"SupportJointHolder",
			"primitives":[
				{
					"attributes":{
						"POSITION":48,
						"NORMAL":49,
						"TEXCOORD_0":50
					},
					"indices":51,
					"material":5
				}
			]
		},
		{
			"name":"SupportMesh",
			"primitives":[
				{
					"attributes":{
						"POSITION":52,
						"NORMAL":53,
						"TEXCOORD_0":54
					},
					"indices":55,
					"material":5
				}
			]
		}
	],
	"accessors":[
		{
			"bufferView":0,
			"componentType":5126,
			"count":360,
			"max":[
				0.9435745477676392,
				0.3963407576084137,
				0.9157718420028687
			],
			"min":[
				-0.9435745477676392,
				-0.9971000552177429,
				-0.9157718420028687
			],
			"type":"VEC3"
		},
		{
			"bufferView":1,
			"componentType":5126,
			"count":360,
			"type":"VEC3"
		},
		{
			"bufferView":2,
			"componentType":5126,
			"count":360,
			"type":"VEC2"
		},
		{
			"bufferView":3,
			"componentType":5123,
			"count":1536,
			"type":"SCALAR"
		},
		{
			"bufferView":4,
			"componentType":5126,
			"count":176,
			"max":[
				0.8194713592529297,
				0.13358277082443237,
				0.7953254580497742
			],
			"min":[
				-0.8194712996482849,
				-0.9921587109565735,
				-0.7953254580497742
			],
			"type":"VEC3"
		},
		{
			"bufferView":5,
			"componentType":5126,
			"count":176,
			"type":"VEC3"
		},
		{
			"bufferView":6,
			"componentType":5126,
			"count":176,
			"type":"VEC2"
		},
		{
			"bufferView":7,
			"componentType":5123,
			"count":666,
			"type":"SCALAR"
		},
		{
			"bufferView":8,
			"componentType":5126,
			"count":50,
			"max":[
				0.13527941703796387,
				-0.12354370951652527,
				0.13527937233448029
			],
			"min":[
				-0.13527941703796387,
				-0.5298718214035034,
				-0.1352795958518982
			],
			"type":"VEC3"
		},
		{
			"bufferView":9,
			"componentType":5126,
			"count":50,
			"type":"VEC3"
		},
		{
			"bufferView":10,
			"componentType":5126,
			"count":50,
			"type":"VEC2"
		},
		{
			"bufferView":11,
			"componentType":5123,
			"count":138,
			"type":"SCALAR"
		},
		{
			"bufferView":12,
			"componentType":5126,
			"count":68,
			"max":[
				0.14340005815029144,
				0.20100390911102295,
				0.14340002834796906
			],
			"min":[
				-0.14340005815029144,
				-0.12354379147291183,
				-0.14340008795261383
			],
			"type":"VEC3"
		},
		{
			"bufferView":13,
			"componentType":5126,
			"count":68,
			"type":"VEC3"
		},
		{
			"bufferView":14,
			"componentType":5126,
			"count":68,
			"type":"VEC2"
		},
		{
			"bufferView":15,
			"componentType":5123,
			"count":288,
			"type":"SCALAR"
		},
		{
			"bufferView":16,
			"componentType":5126,
			"count":237,
			"max":[
				0.3076838254928589,
				0.7271525859832764,
				0.3076838552951813
			],
			"min":[
				-0.3076837956905365,
				-0.016542617231607437,
				-0.30768388509750366
			],
			"type":"VEC3"
		},
		{
			"bufferView":17,
			"componentType":5126,
			"count":237,
			"type":"VEC3"
		},
		{
			"bufferView":18,
			"componentType":5126,
			"count":237,
			"type":"VEC2"
		},
		{
			"bufferView":19,
			"componentType":5123,
			"count":1104,
			"type":"SCALAR"
		},
		{
			"bufferView":20,
			"componentType":5126,
			"count":51,
			"max":[
				0.15032218396663666,
				-0.016542579978704453,
				0.15032239258289337
			],
			"min":[
				-0.15032218396663666,
				-0.23387180268764496,
				-0.1503220498561859
			],
			"type":"VEC3"
		},
		{
			"bufferView":21,
			"componentType":5126,
			"count":51,
			"type":"VEC3"
		},
		{
			"bufferView":22,
			"componentType":5126,
			"count":51,
			"type":"VEC2"
		},
		{
			"bufferView":23,
			"componentType":5123,
			"count":192,
			"type":"SCALAR"
		},
		{
			"bufferView":24,
			"componentType":5126,
			"count":506,
			"max":[
				0.0920400470495224,
				0.07374881953001022,
				0.26391181349754333
			],
			"min":[
				-0.092040054500103,
				-0.0752294734120369,
				-0.05836296081542969
			],
			"type":"VEC3"
		},
		{
			"bufferView":25,
			"componentType":5126,
			"count":506,
			"type":"VEC3"
		},
		{
			"bufferView":26,
			"componentType":5126,
			"count":506,
			"type":"VEC2"
		},
		{
			"bufferView":27,
			"componentType":5123,
			"count":1818,
			"type":"SCALAR"
		},
		{
			"bufferView":28,
			"componentType":5126,
			"count":90,
			"max":[
				0.06109929829835892,
				0.061099182814359665,
				0.19499117136001587
			],
			"min":[
				-0.06109922006726265,
				-0.061099182814359665,
				-0.026960812509059906
			],
			"type":"VEC3"
		},
		{
			"bufferView":29,
			"componentType":5126,
			"count":90,
			"type":"VEC3"
		},
		{
			"bufferView":30,
			"componentType":5126,
			"count":90,
			"type":"VEC2"
		},
		{
			"bufferView":31,
			"componentType":5123,
			"count":228,
			"type":"SCALAR"
		},
		{
			"bufferView":32,
			"componentType":5126,
			"count":348,
			"max":[
				0.03717478737235069,
				0.14429588615894318,
				1.5479772090911865
			],
			"min":[
				-0.037174370139837265,
				-0.14429588615894318,
				-0.14429594576358795
			],
			"type":"VEC3"
		},
		{
			"bufferView":33,
			"componentType":5126,
			"count":348,
			"type":"VEC3"
		},
		{
			"bufferView":34,
			"componentType":5126,
			"count":348,
			"type":"VEC2"
		},
		{
			"bufferView":35,
			"componentType":5123,
			"count":978,
			"type":"SCALAR"
		},
		{
			"bufferView":36,
			"componentType":5126,
			"count":578,
			"max":[
				0.03717506676912308,
				0.14429588615894318,
				4.339363098144531
			],
			"min":[
				-0.03717440366744995,
				-0.14429588615894318,
				-0.14479464292526245
			],
			"type":"VEC3"
		},
		{
			"bufferView":37,
			"componentType":5126,
			"count":578,
			"type":"VEC3"
		},
		{
			"bufferView":38,
			"componentType":5126,
			"count":578,
			"type":"VEC2"
		},
		{
			"bufferView":39,
			"componentType":5123,
			"count":1686,
			"type":"SCALAR"
		},
		{
			"bufferView":40,
			"componentType":5126,
			"count":308,
			"max":[
				0.03717441484332085,
				0.14429590106010437,
				0.14429593086242676
			],
			"min":[
				-0.03717441484332085,
				-0.14429590106010437,
				-0.2392609864473343
			],
			"type":"VEC3"
		},
		{
			"bufferView":41,
			"componentType":5126,
			"count":308,
			"type":"VEC3"
		},
		{
			"bufferView":42,
			"componentType":5126,
			"count":308,
			"type":"VEC2"
		},
		{
			"bufferView":43,
			"componentType":5123,
			"count":870,
			"type":"SCALAR"
		},
		{
			"bufferView":44,
			"componentType":5126,
			"count":181,
			"max":[
				0.057939816266298294,
				0.18335123360157013,
				0.10149228572845459
			],
			"min":[
				-0.057939816266298294,
				-0.18335123360157013,
				-0.057939816266298294
			],
			"type":"VEC3"
		},
		{
			"bufferView":45,
			"componentType":5126,
			"count":181,
			"type":"VEC3"
		},
		{
			"bufferView":46,
			"componentType":5126,
			"count":181,
			"type":"VEC2"
		},
		{
			"bufferView":47,
			"componentType":5123,
			"count":612,
			"type":"SCALAR"
		},
		{
			"bufferView":48,
			"componentType":5126,
			"count":284,
			"max":[
				0.05813543498516083,
				0.38036778569221497,
				0.05851446092128754
			],
			"min":[
				-0.05774417892098427,
				-0.38036778569221497,
				-0.09372174739837646
			],
			"type":"VEC3"
		},
		{
			"bufferView":49,
			"componentType":5126,
			"count":284,
			"type":"VEC3"
		},
		{
			"bufferView":50,
			"componentType":5126,
			"count":284,
			"type":"VEC2"
		},
		{
			"bufferView":51,
			"componentType":5123,
			"count":996,
			"type":"SCALAR"
		},
		{
			"bufferView":52,
			"componentType":5126,
			"count":122,
			"max":[
				0.551156759262085,
				0.5541926622390747,
				0.047421153634786606
			],
			"min":[
				-0.551156759262085,
				-0.5541926622390747,
				-0.047421153634786606
			],
			"type":"VEC3"
		},
		{
			"bufferView":53,
			"componentType":5126,
			"count":122,
			"type":"VEC3"
		},
		{
			"bufferView":54,
			"componentType":5126,
			"count":122,
			"type":"VEC2"
		},
		{
			"bufferView":55,
			"componentType":5123,
			"count":348,
			"type":"SCALAR"
		}
	],
	"bufferViews":[
		{
			"buffer":0,
			"byteLength":4320,
			"byteOffset":0,
			"target":34962
		},
		{
			"buffer":0,
			"byteLength":4320,
			"byteOffset":4320,
			"target":34962
		},
		{
			"buffer":0,
			"byteLength":2880,
			"byteOffset":8640,
			"target":34962
		},
		{
			"buffer":0,
			"byteLength":3072,
			"byteOffset":11520,
			"target":34963
		},
		{
			"buffer":0,
			"byteLength":2112,
			"byteOffset":14592,
			"target":34962
		},
		{
			"buffer":0,
			"byteLength":2112,
			"byteOffset":16704,
			"target":34962
		},
		{
			"buffer":0,
			"byteLength":1408,
			"byteOffset":18816,
			"target":34962
		},
		{
			"buffer":0,
			"byteLength":1332,
			"byteOffset":20224,
			"target":34963
		},
		{
			"buffer":0,
			"byteLength":600,
			"byteOffset":21556,
			"target":34962
		},
		{
			"buffer":0,
			"byteLength":600,
			"byteOffset":22156,
			"target":34962
		},
		{
			"buffer":0,
			"byteLength":400,
			"byteOffset":22756,
			"target":34962
		},
		{
			"buffer":0,
			"byteLength":276,
			"byteOffset":23156,
			"target":34963
		},
		{
			"buffer":0,
			"byteLength":816,
			"byteOffset":23432,
			"target":34962
		},
		{
			"buffer":0,
			"byteLength":816,
			"byteOffset":24248,
			"target":34962
		},
		{
			"buffer":0,
			"byteLength":544,
			"byteOffset":25064,
			"target":34962
		},
		{
			"buffer":0,
			"byteLength":576,
			"byteOffset":25608,
			"target":34963
		},
		{
			"buffer":0,
			"byteLength":2844,
			"byteOffset":26184,
			"target":34962
		},
		{
			"buffer":0,
			"byteLength":2844,
			"byteOffset":29028,
			"target":34962
		},
		{
			"buffer":0,
			"byteLength":1896,
			"byteOffset":31872,
			"target":34962
		},
		{
			"buffer":0,
			"byteLength":2208,
			"byteOffset":33768,
			"target":34963
		},
		{
			"buffer":0,
			"byteLength":612,
			"byteOffset":35976,
			"target":34962
		},
		{
			"buffer":0,
			"byteLength":612,
			"byteOffset":36588,
			"target":34962
		},
		{
			"buffer":0,
			"byteLength":408,
			"byteOffset":37200,
			"target":34962
		},
		{
			"buffer":0,
			"byteLength":384,
			"byteOffset":37608,
			"target":34963
		},
		{
			"buffer":0,
			"byteLength":6072,
			"byteOffset":37992,
			"target":34962
		},
		{
			"buffer":0,
			"byteLength":6072,
			"byteOffset":44064,
			"target":34962
		},
		{
			"buffer":0,
			"byteLength":4048,
			"byteOffset":50136,
			"target":34962
		},
		{
			"buffer":0,
			"byteLength":3636,
			"byteOffset":54184,
			"target":34963
		},
		{
			"buffer":0,
			"byteLength":1080,
			"byteOffset":57820,
			"target":34962
		},
		{
			"buffer":0,
			"byteLength":1080,
			"byteOffset":58900,
			"target":34962
		},
		{
			"buffer":0,
			"byteLength":720,
			"byteOffset":59980,
			"target":34962
		},
		{
			"buffer":0,
			"byteLength":456,
			"byteOffset":60700,
			"target":34963
		},
		{
			"buffer":0,
			"byteLength":4176,
			"byteOffset":61156,
			"target":34962
		},
		{
			"buffer":0,
			"byteLength":4176,
			"byteOffset":65332,
			"target":34962
		},
		{
			"buffer":0,
			"byteLength":2784,
			"byteOffset":69508,
			"target":34962
		},
		{
			"buffer":0,
			"byteLength":1956,
			"byteOffset":72292,
			"target":34963
		},
		{
			"buffer":0,
			"byteLength":6936,
			"byteOffset":74248,
			"target":34962
		},
		{
			"buffer":0,
			"byteLength":6936,
			"byteOffset":81184,
			"target":34962
		},
		{
			"buffer":0,
			"byteLength":4624,
			"byteOffset":88120,
			"target":34962
		},
		{
			"buffer":0,
			"byteLength":3372,
			"byteOffset":92744,
			"target":34963
		},
		{
			"buffer":0,
			"byteLength":3696,
			"byteOffset":96116,
			"target":34962
		},
		{
			"buffer":0,
			"byteLength":3696,
			"byteOffset":99812,
			"target":34962
		},
		{
			"buffer":0,
			"byteLength":2464,
			"byteOffset":103508,
			"target":34962
		},
		{
			"buffer":0,
			"byteLength":1740,
			"byteOffset":105972,
			"target":34963
		},
		{
			"buffer":0,
			"byteLength":2172,
			"byteOffset":107712,
			"target":34962
		},
		{
			"buffer":0,
			"byteLength":2172,
			"byteOffset":109884,
			"target":34962
		},
		{
			"buffer":0,
			"byteLength":1448,
			"byteOffset":112056,
			"target":34962
		},
		{
			"buffer":0,
			"byteLength":1224,
			"byteOffset":113504,
			"target":34963
		},
		{
			"buffer":0,
			"byteLength":3408,
			"byteOffset":114728,
			"target":34962
		},
		{
			"buffer":0,
			"byteLength":3408,
			"byteOffset":118136,
			"target":34962
		},
		{
			"buffer":0,
			"byteLength":2272,
			"byteOffset":121544,
			"target":34962
		},
		{
			"buffer":0,
			"byteLength":1992,
			"byteOffset":123816,
			"target":34963
		},
		{
			"buffer":0,
			"byteLength":1464,
			"byteOffset":125808,
			"target":34962
		},
		{
			"buffer":0,
			"byteLength":1464,
			"byteOffset":127272,
			"target":34962
		},
		{
			"buffer":0,
			"byteLength":976,
			"byteOffset":128736,
			"target":34962
		},
		{
			"buffer":0,
			"byteLength":696,
			"byteOffset":129712,
			"target":34963
		}
	],
	"buffers":[
		{
			"byteLength":130408,
			"uri":"ApliqueArticuladoPecaUnica.bin"
		}
	]
}
