{
	"asset":{
		"generator":"Khronos glTF Blender I/O v4.1.63",
		"version":"2.0"
	},
	"scene":0,
	"scenes":[
		{
			"name":"Scene",
			"nodes":[
				0,
				1
			]
		}
	],
	"nodes":[
		{
			"mesh":0,
			"name":"Group3264",
			"translation":[
				2.883815050125122,
				-0.3066560924053192,
				-7.829298496246338
			]
		},
		{
			"mesh":1,
			"name":"Dune",
			"rotation":[
				0.70710688829422,
				0,
				0,
				0.7071066498756409
			],
			"translation":[
				2.883815050125122,
				1.3250304460525513,
				-7.529298305511475
			]
		}
	],
	"materials":[
		{
			"doubleSided":true,
			"name":"Material",
			"pbrMetallicRoughness":{}
		},
		{
			"doubleSided":true,
			"name":"SofaMat",
			"pbrMetallicRoughness":{}
		},
		{
			"doubleSided":true,
			"name":"GreyPillow",
			"pbrMetallicRoughness":{}
		},
		{
			"doubleSided":true,
			"name":"WhitePillow",
			"pbrMetallicRoughness":{}
		},
		{
			"doubleSided":true,
			"name":"BlackPillow",
			"pbrMetallicRoughness":{}
		}
	],
	"meshes":[
		{
			"name":"Group3264",
			"primitives":[
				{
					"attributes":{
						"POSITION":0,
						"NORMAL":1,
						"TEXCOORD_0":2
					},
					"indices":3,
					"material":0
				}
			]
		},
		{
			"name":"Dune",
			"primitives":[
				{
					"attributes":{
						"POSITION":4,
						"NORMAL":5,
						"TEXCOORD_0":6
					},
					"indices":7,
					"material":1
				},
				{
					"attributes":{
						"POSITION":8,
						"NORMAL":9,
						"TEXCOORD_0":10
					},
					"indices":11,
					"material":2
				},
				{
					"attributes":{
						"POSITION":12,
						"NORMAL":13,
						"TEXCOORD_0":14
					},
					"indices":15,
					"material":3
				},
				{
					"attributes":{
						"POSITION":16,
						"NORMAL":17,
						"TEXCOORD_0":18
					},
					"indices":19,
					"material":4
				}
			]
		}
	],
	"accessors":[
		{
			"bufferView":0,
			"componentType":5126,
			"count":10014,
			"max":[
				-2.0903754234313965,
				0.5153155326843262,
				8.525914192199707
			],
			"min":[
				-3.0021538734436035,
				-0.00010119911166839302,
				7.832088947296143
			],
			"type":"VEC3"
		},
		{
			"bufferView":1,
			"componentType":5126,
			"count":10014,
			"type":"VEC3"
		},
		{
			"bufferView":2,
			"componentType":5126,
			"count":10014,
			"type":"VEC2"
		},
		{
			"bufferView":3,
			"componentType":5123,
			"count":60072,
			"type":"SCALAR"
		},
		{
			"bufferView":4,
			"componentType":5126,
			"count":18437,
			"max":[
				-2.3581643104553223,
				8.822976112365723,
				1.6214163303375244
			],
			"min":[
				-3.39231538772583,
				6.273371696472168,
				0.9520925879478455
			],
			"type":"VEC3"
		},
		{
			"bufferView":5,
			"componentType":5126,
			"count":18437,
			"type":"VEC3"
		},
		{
			"bufferView":6,
			"componentType":5126,
			"count":18437,
			"type":"VEC2"
		},
		{
			"bufferView":7,
			"componentType":5123,
			"count":80070,
			"type":"SCALAR"
		},
		{
			"bufferView":8,
			"componentType":5126,
			"count":4592,
			"max":[
				-2.967106342315674,
				8.174091339111328,
				1.2435334920883179
			],
			"min":[
				-3.2675695419311523,
				6.713310241699219,
				0.7872583270072937
			],
			"type":"VEC3"
		},
		{
			"bufferView":9,
			"componentType":5126,
			"count":4592,
			"type":"VEC3"
		},
		{
			"bufferView":10,
			"componentType":5126,
			"count":4592,
			"type":"VEC2"
		},
		{
			"bufferView":11,
			"componentType":5123,
			"count":16524,
			"type":"SCALAR"
		},
		{
			"bufferView":12,
			"componentType":5126,
			"count":4163,
			"max":[
				-2.834502696990967,
				8.371569633483887,
				1.2424430847167969
			],
			"min":[
				-3.2004623413085938,
				6.620424747467041,
				0.8138169050216675
			],
			"type":"VEC3"
		},
		{
			"bufferView":13,
			"componentType":5126,
			"count":4163,
			"type":"VEC3"
		},
		{
			"bufferView":14,
			"componentType":5126,
			"count":4163,
			"type":"VEC2"
		},
		{
			"bufferView":15,
			"componentType":5123,
			"count":14697,
			"type":"SCALAR"
		},
		{
			"bufferView":16,
			"componentType":5126,
			"count":1811,
			"max":[
				-2.9006402492523193,
				7.451797962188721,
				1.236340880393982
			],
			"min":[
				-3.202453851699829,
				7.006930828094482,
				0.8427366018295288
			],
			"type":"VEC3"
		},
		{
			"bufferView":17,
			"componentType":5126,
			"count":1811,
			"type":"VEC3"
		},
		{
			"bufferView":18,
			"componentType":5126,
			"count":1811,
			"type":"VEC2"
		},
		{
			"bufferView":19,
			"componentType":5123,
			"count":6900,
			"type":"SCALAR"
		}
	],
	"bufferViews":[
		{
			"buffer":0,
			"byteLength":120168,
			"byteOffset":0,
			"target":34962
		},
		{
			"buffer":0,
			"byteLength":120168,
			"byteOffset":120168,
			"target":34962
		},
		{
			"buffer":0,
			"byteLength":80112,
			"byteOffset":240336,
			"target":34962
		},
		{
			"buffer":0,
			"byteLength":120144,
			"byteOffset":320448,
			"target":34963
		},
		{
			"buffer":0,
			"byteLength":221244,
			"byteOffset":440592,
			"target":34962
		},
		{
			"buffer":0,
			"byteLength":221244,
			"byteOffset":661836,
			"target":34962
		},
		{
			"buffer":0,
			"byteLength":147496,
			"byteOffset":883080,
			"target":34962
		},
		{
			"buffer":0,
			"byteLength":160140,
			"byteOffset":1030576,
			"target":34963
		},
		{
			"buffer":0,
			"byteLength":55104,
			"byteOffset":1190716,
			"target":34962
		},
		{
			"buffer":0,
			"byteLength":55104,
			"byteOffset":1245820,
			"target":34962
		},
		{
			"buffer":0,
			"byteLength":36736,
			"byteOffset":1300924,
			"target":34962
		},
		{
			"buffer":0,
			"byteLength":33048,
			"byteOffset":1337660,
			"target":34963
		},
		{
			"buffer":0,
			"byteLength":49956,
			"byteOffset":1370708,
			"target":34962
		},
		{
			"buffer":0,
			"byteLength":49956,
			"byteOffset":1420664,
			"target":34962
		},
		{
			"buffer":0,
			"byteLength":33304,
			"byteOffset":1470620,
			"target":34962
		},
		{
			"buffer":0,
			"byteLength":29394,
			"byteOffset":1503924,
			"target":34963
		},
		{
			"buffer":0,
			"byteLength":21732,
			"byteOffset":1533320,
			"target":34962
		},
		{
			"buffer":0,
			"byteLength":21732,
			"byteOffset":1555052,
			"target":34962
		},
		{
			"buffer":0,
			"byteLength":14488,
			"byteOffset":1576784,
			"target":34962
		},
		{
			"buffer":0,
			"byteLength":13800,
			"byteOffset":1591272,
			"target":34963
		}
	],
	"buffers":[
		{
			"byteLength":1605072,
			"uri":"Sofa.bin"
		}
	]
}
